<?xml version="1.0" standalone="no"?>
<!DOCTYPE svg PUBLIC "-//W3C//DTD SVG 20010904//EN"
 "http://www.w3.org/TR/2001/REC-SVG-20010904/DTD/svg10.dtd">
<svg version="1.0" xmlns="http://www.w3.org/2000/svg"
 width="260.000000pt" height="260.000000pt" viewBox="0 0 260.000000 260.000000"
 preserveAspectRatio="xMidYMid meet">
<metadata>
Created by potrace 1.11, written by Peter Selinger 2001-2013
</metadata>
<g transform="translate(0.000000,260.000000) scale(0.100000,-0.100000)"
fill="#000000" stroke="none">
<path d="M1006 2470 c-65 -39 -141 -83 -170 -99 -28 -15 -152 -87 -276 -159
l-225 -131 -3 -463 -3 -463 180 -105 181 -105 0 -211 0 -211 28 -14 c15 -7 38
-21 52 -30 14 -9 179 -107 368 -218 l343 -201 102 59 c114 66 170 98 207 118
14 8 39 23 55 33 17 10 47 28 67 39 20 11 110 63 200 115 l164 95 2 463 2 463
-180 105 c-168 98 -180 107 -180 135 -1 17 -1 111 0 210 l0 180 -27 16 c-16 9
-107 62 -203 119 -96 57 -184 108 -195 114 -11 6 -31 19 -45 27 -41 26 -319
189 -322 189 -2 0 -56 -32 -122 -70z m511 -300 l280 -165 0 -137 -1 -137 -55
31 c-31 18 -96 56 -145 86 -49 29 -96 54 -105 54 -9 1 -191 -100 -406 -225
l-390 -225 -2 -177 c-1 -97 -4 -179 -6 -181 -2 -3 -56 26 -118 63 l-114 68 0
389 c0 213 2 391 5 395 3 5 39 27 80 50 41 23 82 46 90 51 30 20 362 210 365
210 2 0 23 12 47 28 85 54 78 53 139 19 31 -18 182 -106 336 -197z m103 -480
c14 -10 30 -19 35 -21 10 -4 138 -79 380 -224 l120 -71 0 -375 c0 -206 -2
-383 -3 -394 -3 -14 -85 -67 -295 -188 -161 -92 -310 -178 -333 -192 l-41 -24
-179 106 c-98 58 -197 116 -219 128 -22 13 -92 54 -155 92 l-115 68 0 380 c0
209 1 387 3 395 2 8 49 41 105 73 56 31 206 117 332 191 l230 134 55 -31 c30
-17 66 -38 80 -47z"/>
</g>
</svg>
